<?xml version="1.0" standalone="no"?>
<!DOCTYPE svg PUBLIC "-//W3C//DTD SVG 20010904//EN"
 "http://www.w3.org/TR/2001/REC-SVG-20010904/DTD/svg10.dtd">
<svg version="1.0" xmlns="http://www.w3.org/2000/svg"
 width="2085.000000pt" height="1876.000000pt" viewBox="0 0 2085.000000 1876.000000"
 preserveAspectRatio="xMidYMid meet">

<g transform="translate(0.000000,1876.000000) scale(0.100000,-0.100000)"
fill="#000000" stroke="none">
<path d="M11730 18677 c-249 -171 -509 -380 -1335 -1072 -132 -110 -337 -280
-455 -376 -118 -97 -260 -216 -315 -265 -55 -49 -174 -153 -265 -231 -91 -77
-176 -153 -190 -168 -14 -15 -59 -54 -100 -87 -41 -33 -455 -434 -920 -891
-2505 -2465 -2571 -2531 -2664 -2647 -50 -63 -232 -285 -404 -495 -472 -572
-636 -790 -964 -1280 -172 -257 -215 -314 -297 -395 -123 -122 -183 -154 -291
-154 -66 -1 -84 3 -142 32 -119 58 -261 210 -533 567 -196 257 -358 429 -496
528 -85 60 -252 139 -350 166 -246 66 -516 45 -761 -59 -188 -80 -365 -242
-432 -396 l-18 -41 -86 -6 c-232 -17 -427 -109 -569 -270 -57 -64 -133 -180
-133 -202 0 -6 55 -11 148 -12 372 -4 670 -130 937 -398 230 -229 357 -420
719 -1079 434 -789 614 -1045 1001 -1430 752 -746 2059 -1644 3820 -2623 783
-435 2052 -1086 2680 -1373 1927 -883 5100 -2038 8395 -3055 190 -58 638 -200
995 -315 1197 -384 1899 -601 1939 -600 6 1 -72 32 -174 69 -880 325 -3154
1256 -4270 1749 -1261 557 -2077 935 -2893 1344 -2175 1087 -3770 2140 -4886
3224 -430 418 -736 780 -1015 1199 -420 631 -649 1213 -733 1860 -24 193 -24
611 1 815 74 609 269 1213 621 1925 338 684 750 1337 1450 2300 109 150 1890
2520 2660 3540 83 110 180 243 217 295 110 159 239 381 221 380 -5 -1 -55 -33
-113 -73z"/>
</g>
</svg>
